  0
SECTION
  2
HEADER
  9
$ACADVER
  1
AC1009
  9
$DWGCODEPAGE
  3
ansi_1252
  9
$INSBASE
 10
0.0
 20
0.0
 30
0.0
  9
$EXTMIN
 10
-0.0501458408652371
 20
0.0202666612898839
 30
0.0
  9
$EXTMAX
 10
14.7610411222101
 20
5.658113238416435
 30
0.0
  9
$LIMMIN
 10
0.0
 20
0.0
  9
$LIMMAX
 10
12.0
 20
9.0
  9
$ORTHOMODE
 70
     0
  9
$REGENMODE
 70
     1
  9
$FILLMODE
 70
     1
  9
$QTEXTMODE
 70
     0
  9
$MIRRTEXT
 70
     1
  9
$DRAGMODE
 70
     2
  9
$LTSCALE
 40
1.0
  9
$OSMODE
 70
    37
  9
$ATTMODE
 70
     1
  9
$TEXTSIZE
 40
0.2
  9
$TRACEWID
 40
0.05
  9
$TEXTSTYLE
  7
STANDARD
  9
$CLAYER
  8
0
  9
$CELTYPE
  6
BYBLOCK
  9
$CECOLOR
 62
     1
  9
$DIMSCALE
 40
1.0
  9
$DIMASZ
 40
0.18
  9
$DIMEXO
 40
0.0625
  9
$DIMDLI
 40
0.38
  9
$DIMRND
 40
0.0
  9
$DIMDLE
 40
0.0
  9
$DIMEXE
 40
0.18
  9
$DIMTP
 40
0.0
  9
$DIMTM
 40
0.0
  9
$DIMTXT
 40
0.18
  9
$DIMCEN
 40
0.09
  9
$DIMTSZ
 40
0.0
  9
$DIMTOL
 70
     0
  9
$DIMLIM
 70
     0
  9
$DIMTIH
 70
     1
  9
$DIMTOH
 70
     1
  9
$DIMSE1
 70
     0
  9
$DIMSE2
 70
     0
  9
$DIMTAD
 70
     0
  9
$DIMZIN
 70
     0
  9
$DIMBLK
  1

  9
$DIMASO
 70
     1
  9
$DIMSHO
 70
     1
  9
$DIMPOST
  1

  9
$DIMAPOST
  1

  9
$DIMALT
 70
     0
  9
$DIMALTD
 70
     2
  9
$DIMALTF
 40
25.4
  9
$DIMLFAC
 40
1.0
  9
$DIMTOFL
 70
     0
  9
$DIMTVP
 40
0.0
  9
$DIMTIX
 70
     0
  9
$DIMSOXD
 70
     0
  9
$DIMSAH
 70
     0
  9
$DIMBLK1
  1

  9
$DIMBLK2
  1

  9
$DIMSTYLE
  2
STANDARD
  9
$DIMCLRD
 70
     0
  9
$DIMCLRE
 70
     0
  9
$DIMCLRT
 70
     0
  9
$DIMTFAC
 40
1.0
  9
$DIMGAP
 40
0.09
  9
$LUNITS
 70
     2
  9
$LUPREC
 70
     4
  9
$SKETCHINC
 40
0.1
  9
$FILLETRAD
 40
0.5
  9
$AUNITS
 70
     0
  9
$AUPREC
 70
     0
  9
$MENU
  1
.
  9
$ELEVATION
 40
0.0
  9
$PELEVATION
 40
0.0
  9
$THICKNESS
 40
0.0
  9
$LIMCHECK
 70
     0
  9
$CHAMFERA
 40
0.5
  9
$CHAMFERB
 40
0.5
  9
$SKPOLY
 70
     0
  9
$TDCREATE
 40
2453353.508792488
  9
$TDUPDATE
 40
2440787.857912593
  9
$TDINDWG
 40
2440862.049751111
  9
$TDUSRTIMER
 40
2440862.049751111
  9
$USRTIMER
 70
     1
  9
$ANGBASE
 50
0.0
  9
$ANGDIR
 70
     0
  9
$PDMODE
 70
     0
  9
$PDSIZE
 40
0.0
  9
$PLINEWID
 40
0.0
  9
$COORDS
 70
     1
  9
$SPLFRAME
 70
     0
  9
$SPLINETYPE
 70
     6
  9
$SPLINESEGS
 70
     8
  9
$ATTDIA
 70
     0
  9
$ATTREQ
 70
     1
  9
$HANDLING
 70
     1
  9
$HANDSEED
  5
1368
  9
$SURFTAB1
 70
     6
  9
$SURFTAB2
 70
     6
  9
$SURFTYPE
 70
     6
  9
$SURFU
 70
     6
  9
$SURFV
 70
     6
  9
$UCSNAME
  2

  9
$UCSORG
 10
0.0
 20
0.0
 30
0.0
  9
$UCSXDIR
 10
1.0
 20
0.0
 30
0.0
  9
$UCSYDIR
 10
0.0
 20
1.0
 30
0.0
  9
$PUCSNAME
  2

  9
$PUCSORG
 10
0.0
 20
0.0
 30
0.0
  9
$PUCSXDIR
 10
1.0
 20
0.0
 30
0.0
  9
$PUCSYDIR
 10
0.0
 20
1.0
 30
0.0
  9
$USERI1
 70
     0
  9
$USERI2
 70
     0
  9
$USERI3
 70
     0
  9
$USERI4
 70
     0
  9
$USERI5
 70
     0
  9
$USERR1
 40
0.0
  9
$USERR2
 40
0.0
  9
$USERR3
 40
0.0
  9
$USERR4
 40
0.0
  9
$USERR5
 40
0.0
  9
$WORLDVIEW
 70
     1
  9
$SHADEDGE
 70
     3
  9
$SHADEDIF
 70
    70
  9
$TILEMODE
 70
     1
  9
$MAXACTVP
 70
    64
  9
$PLIMCHECK
 70
     0
  9
$PEXTMIN
 10
0.0
 20
0.0
 30
0.0
  9
$PEXTMAX
 10
0.0
 20
0.0
 30
0.0
  9
$PLIMMIN
 10
0.0
 20
0.0
  9
$PLIMMAX
 10
0.0
 20
0.0
  9
$UNITMODE
 70
     0
  9
$VISRETAIN
 70
     1
  9
$PLINEGEN
 70
     0
  9
$PSLTSCALE
 70
     1
  0
ENDSEC
  0
SECTION
  2
TABLES
  0
TABLE
  2
VPORT
 70
     1
  0
VPORT
  2
*ACTIVE
 70
     0
 10
0.0
 20
0.0
 11
1.0
 21
1.0
 12
6.864259080483723
 22
2.850768980560864
 13
0.0
 23
0.0
 14
0.5
 24
0.5
 15
0.5
 25
0.5
 16
0.0
 26
0.0
 36
1.0
 17
0.0
 27
0.0
 37
0.0
 40
10.39768506558082
 41
1.972972972850329
 42
50.0
 43
0.0
 44
0.0
 50
0.0
 51
0.0
 71
    16
 72
   100
 73
     1
 74
     1
 75
     0
 76
     0
 77
     0
 78
     0
  0
ENDTAB
  0
TABLE
  2
LTYPE
 70
     1
  0
LTYPE
  2
CONTINUOUS
 70
     0
  3
Solid line
 72
    65
 73
     0
 40
0.0
  0
ENDTAB
  0
TABLE
  2
LAYER
 70
     2
  0
LAYER
  2
0
 70
     0
 62
     7
  6
CONTINUOUS
  0
LAYER
  2
LAYER_1
 70
     0
 62
     7
  6
CONTINUOUS
  0
ENDTAB
  0
TABLE
  2
STYLE
 70
     1
  0
STYLE
  2
STANDARD
 70
     0
 40
0.0
 41
1.0
 50
0.0
 71
     0
 42
0.2
  3
txt
  4

  0
ENDTAB
  0
TABLE
  2
VIEW
 70
     0
  0
ENDTAB
  0
TABLE
  2
UCS
 70
     0
  0
ENDTAB
  0
TABLE
  2
APPID
 70
     1
  0
APPID
  2
ACAD
 70
     0
  0
ENDTAB
  0
TABLE
  2
DIMSTYLE
 70
     1
  0
DIMSTYLE
  2
STANDARD
 70
     0
  3

  4

  5

  6

  7

 40
1.0
 41
0.18
 42
0.0625
 43
0.38
 44
0.18
 45
0.0
 46
0.0
 47
0.0
 48
0.0
140
0.18
141
0.09
142
0.0
143
25.4
144
1.0
145
0.0
146
1.0
147
0.09
 71
     0
 72
     0
 73
     1
 74
     1
 75
     0
 76
     0
 77
     0
 78
     0
170
     0
171
     2
172
     0
173
     0
174
     0
175
     0
176
     0
177
     0
178
     0
  0
ENDTAB
  0
ENDSEC
  0
SECTION
  2
BLOCKS
  0
BLOCK
  8
0
  2
$MODEL_SPACE
 70
     0
 10
0.0
 20
0.0
 30
0.0
  3
$MODEL_SPACE
  1

  0
ENDBLK
  5
21
  8
0
  0
BLOCK
 67
     1
  8
0
  2
$PAPER_SPACE
 70
     0
 10
0.0
 20
0.0
 30
0.0
  3
$PAPER_SPACE
  1

  0
ENDBLK
  5
76
 67
     1
  8
0
  0
ENDSEC
  0
SECTION
  2
ENTITIES
  0
LINE
  5
1070
  8
LAYER_1
 62
     1
 10
10.88079689857393
 20
0.9518430368379711
 30
0.0
 11
4.446352911199199
 21
1.147215349761484
 31
0.0
  0
LINE
  5
1075
  8
LAYER_1
 62
     1
 10
0.5879909104246246
 20
0.8755936826311543
 30
0.0
 11
0.338267449889464
 21
1.038128143468062
 31
0.0
  0
LINE
  5
1076
  8
LAYER_1
 62
     1
 10
0.338267449889464
 20
1.038128143468062
 30
0.0
 11
0.2597681401366812
 21
1.10291932463976
 31
0.0
  0
LINE
  5
1077
  8
LAYER_1
 62
     1
 10
0.2597681401366812
 20
1.10291932463976
 30
0.0
 11
0.2491439956842003
 21
1.202601778113094
 31
0.0
  0
LINE
  5
1078
  8
LAYER_1
 62
     1
 10
0.2491439956842003
 20
1.202601778113094
 30
0.0
 11
0.3618602755874626
 21
1.444828171655064
 31
0.0
  0
ARC
  5
1087
  8
0
  6
BYBLOCK
 62
     1
 10
2.892554347510456
 20
1.285236932386436
 30
0.0
 40
1.265211254285376
 50
191.2826788443303
 51
2.000536438346041
  0
ARC
  5
1088
  8
0
  6
BYBLOCK
 62
     1
 10
12.6360500887466
 20
1.340809896829956
 30
0.0
 40
1.309985341675375
 50
192.0951124602192
 51
345.5034349204383
  0
LINE
  5
10DA
  8
LAYER_1
 62
     1
 10
2.710348584871228
 20
4.353500001416232
 30
0.0
 11
2.848024395585754
 21
4.359466634150411
 31
0.0
  0
LINE
  5
10DD
  8
LAYER_1
 62
     1
 10
2.848024395585754
 20
4.359466634150411
 30
0.0
 11
3.876784246001877
 21
5.032545341795778
 31
0.0
  0
LINE
  5
10DE
  8
LAYER_1
 62
     1
 10
3.876784246001877
 20
5.032545341795778
 30
0.0
 11
3.903915170690413
 21
5.128193603968922
 31
0.0
  0
LINE
  5
10EE
  8
LAYER_1
 62
     1
 10
9.391195683730516
 20
5.038031681712178
 30
0.0
 11
10.04531490401839
 21
4.082267720761044
 31
0.0
  0
LINE
  5
110E
  8
LAYER_1
 62
     1
 10
6.159274067210264
 20
4.115315079200404
 30
0.0
 11
6.173259557365343
 21
5.020766614624128
 31
0.0
  0
LINE
  5
1120
  8
LAYER_1
 62
     1
 10
3.898775996627322
 20
4.030801758762193
 30
0.0
 11
6.074564248378676
 21
4.000512271559556
 31
0.0
  0
LINE
  5
1137
  8
LAYER_1
 62
     1
 10
6.590955350415777
 20
5.001045083850364
 30
0.0
 11
6.567019843387906
 21
4.095747235131645
 31
0.0
  0
LINE
  5
113D
  8
LAYER_1
 62
     1
 10
6.724125992492187
 20
3.979392082880916
 30
0.0
 11
9.429400512266032
 21
3.93916671384276
 31
0.0
  0
ARC
  5
1146
  8
0
  6
BYBLOCK
 62
     1
 10
6.586685351234824
 20
-4.371361289928469
 30
0.0
 40
10.0299795413867
 50
78.52109423479686
 51
94.8770067384834
  0
ARC
  5
1147
  8
0
  6
BYBLOCK
 62
     1
 10
8.42700292551255
 20
4.170051721333929
 30
0.0
 40
1.29732682336341
 50
41.99399059150438
 51
83.10608103067179
  0
ARC
  5
1148
  8
0
  6
BYBLOCK
 62
     1
 10
10.21723178662919
 20
-1.040691539730555
 30
0.0
 40
5.12584305253128
 50
34.7843880795908
 51
91.9220173803848
  0
ARC
  5
1149
  8
0
  6
BYBLOCK
 62
     1
 10
5.919114189292491
 20
1.300510099474339
 30
0.0
 40
4.325758672782698
 50
92.45308673048376
 51
117.7659101958495
  0
ARC
  5
114A
  8
0
  6
BYBLOCK
 62
     1
 10
6.168372025204305
 20
-0.5836906186614287
 30
0.0
 40
6.027750603075398
 50
125.0075165220905
 51
138.6191543298642
  0
ARC
  5
1161
  8
0
  6
BYBLOCK
 62
     1
 10
1.26928742223794
 20
3.140474165670059
 30
0.0
 40
0.0704850372960423
 50
127.3985884807676
 51
239.334332846091
  0
ARC
  5
1162
  8
0
  6
BYBLOCK
 62
     1
 10
6.134524898418773
 20
-1.021941679657409
 30
0.0
 40
6.278272034613257
 50
139.202011035751
 51
154.5548609287559
  0
LINE
  5
1164
  8
0
  6
BYBLOCK
 62
     1
 10
1.23333810891765
 20
3.079845893763101
 30
0.0
 11
1.381760023842922
 21
3.080243809518435
 31
0.0
  0
ARC
  5
1174
  8
0
  6
BYBLOCK
 62
     1
 10
0.9816763837250997
 20
1.863682576001142
 30
0.0
 40
1.063629593932467
 50
248.2761185179561
 51
309.0523233158464
  0
ARC
  5
1179
  8
0
  6
BYBLOCK
 62
     1
 10
13.91670979940581
 20
1.557735317470791
 30
0.0
 40
0.5449841728950504
 50
268.6982549456388
 51
338.1941118664366
  0
ARC
  5
117A
  8
0
  6
BYBLOCK
 62
     1
 10
14.42648836142253
 20
1.58805597703665
 30
0.0
 40
0.3345527607875722
 50
301.3424696056377
 51
58.65753039436208
  0
LINE
  5
117C
  8
0
  6
BYBLOCK
 62
     1
 10
14.42711070715218
 20
1.8835496393994
 30
0.0
 11
14.42439927799026
 21
1.711090985997185
 31
0.0
  0
LINE
  5
117D
  8
0
  6
BYBLOCK
 62
     1
 10
14.42439927799026
 20
1.711090985997185
 30
0.0
 11
14.59869419680206
 21
1.711090985997185
 31
0.0
  0
LINE
  5
117F
  8
0
  6
BYBLOCK
 62
     1
 10
14.42269907810578
 20
1.355293724543887
 30
0.0
 11
14.42663382823144
 21
1.478697760914779
 31
0.0
  0
LINE
  5
1180
  8
0
  6
BYBLOCK
 62
     1
 10
14.42663382823144
 20
1.478697760914779
 30
0.0
 11
14.60092874704324
 21
1.478697760914779
 31
0.0
  0
ARC
  5
118D
  8
0
  6
BYBLOCK
 62
     1
 10
4.483862340600119
 20
1.5276681336851
 30
0.0
 40
0.3822973686663455
 50
211.2392148882087
 51
264.3693172423647
  0
ARC
  5
1195
  8
0
  6
BYBLOCK
 62
     1
 10
10.96511203229583
 20
1.642459760630002
 30
0.0
 40
0.6957445658830375
 50
263.0393925630606
 51
304.0971552988289
  0
ARC
  5
11AE
  8
0
  6
BYBLOCK
 62
     1
 10
7.924565512910258
 20
3.352710136656806
 30
0.0
 40
1.880071392900454
 50
26.63654390701636
 51
83.40043774457028
  0
ARC
  5
11B0
  8
0
  6
BYBLOCK
 62
     1
 10
6.86775919129485
 20
5.00203298907948
 30
0.0
 40
0.2768056037766213
 50
95.57122180233974
 51
180.2044861793908
  0
ARC
  5
11B5
  8
0
  6
BYBLOCK
 62
     1
 10
6.693881153013745
 20
4.102796858968171
 30
0.0
 40
0.1270570308019971
 50
183.1806285508803
 51
283.7709737664982
  0
ARC
  5
11B8
  8
0
  6
BYBLOCK
 62
     1
 10
9.425759104212514
 20
4.130071773242677
 30
0.0
 40
0.1909397851603956
 50
271.0927526802175
 51
20.07161006955723
  0
ARC
  5
11BC
  8
0
  6
BYBLOCK
 62
     1
 10
5.954169323000397
 20
5.061943930534143
 30
0.0
 40
0.2229262257780363
 50
349.3556145161751
 51
70.98269601616143
  0
ARC
  5
11BD
  8
0
  6
BYBLOCK
 62
     1
 10
5.862884976710741
 20
2.078972876554381
 30
0.0
 40
3.197934180358435
 50
87.0617382464916
 51
116.4794436941293
  0
ARC
  5
11BF
  8
0
  6
BYBLOCK
 62
     1
 10
5.214065791512772
 20
3.155384707973478
 30
0.0
 40
1.947761052268678
 50
113.5127434255887
 51
139.0747263419933
  0
ARC
  5
11C0
  8
0
  6
BYBLOCK
 62
     1
 10
3.906254960580575
 20
4.264502456774918
 30
0.0
 40
0.2338203394776676
 50
134.4868075060815
 51
268.1670278431367
  0
ARC
  5
11C3
  8
0
  6
BYBLOCK
 62
     1
 10
6.071136738322226
 20
4.091695257371411
 30
0.0
 40
0.0912473820268389
 50
272.1526981577148
 51
15.0021202346529
  0
LINE
  5
11F9
  8
0
  6
BYBLOCK
 62
     1
 10
14.59869419680206
 20
1.711090985997185
 30
0.0
 11
14.60050675725395
 21
1.873788627713545
 31
0.0
  0
LINE
  5
11FA
  8
0
  6
BYBLOCK
 62
     1
 10
14.60092874704324
 20
1.478697760914779
 30
0.0
 11
14.60050675725395
 21
1.302323326359754
 31
0.0
  0
LINE
  5
120A
  8
0
  6
BYBLOCK
 62
     1
 10
0.1122010129060496
 20
1.443737213484678
 30
0.0
 11
0.1130722883634877
 21
1.276293822139268
 31
0.0
  0
LINE
  5
120B
  8
0
  6
BYBLOCK
 62
     1
 10
0.3618602755874626
 20
1.444828171655064
 30
0.0
 11
0.1122010129060496
 21
1.443737213484678
 31
0.0
  0
LINE
  5
120C
  8
0
  6
BYBLOCK
 62
     1
 10
0.4652635425133562
 20
1.675496997874366
 30
0.0
 11
0.109966462664873
 21
1.676130438567084
 31
0.0
  0
ARC
  5
120D
  8
0
  6
BYBLOCK
 62
     1
 10
0.2871758098442616
 20
1.5652165252424
 30
0.0
 40
0.3373253096944064
 50
121.6067106730434
 51
238.9270220912235
  0
LINE
  5
120E
  8
0
  6
BYBLOCK
 62
     1
 10
0.109966462664873
 20
1.676130438567084
 30
0.0
 11
0.1103884524541628
 21
1.852504873122109
 31
0.0
  0
ARC
  5
127A
  8
0
  6
BYBLOCK
 62
     1
 10
7.240153594954094
 20
-0.4449338895578495
 30
0.0
 40
5.736376858190002
 50
80.96844054850506
 51
93.99117002305857
  0
ARC
  5
1325
  8
0
  6
BYBLOCK
 62
     1
 10
1.775924699767515
 20
2.602351347254681
 30
0.0
 40
0.8092393029998899
 50
99.27068113141284
 51
132.762975827454
  0
ENDSEC
  0
EOF
